# xmcd CD database file
#
# Track frame offsets:
#	182
#	16497
#	42177
#	68440
#	81480
#	110400
#	137360
#	167530
#	210172
#	226962
#	242882
#	268352
#	291895
#	306007
#
# Disc length: 4481 seconds
#
# Revision: 1
# Processed by: cddbd v1.5.1PL0 Copyright (c) Steve Scherf et al.
# Submitted via: CDex 1.51
#
DISCID=ba117f0e
DTITLE=Rene et Olivier Franc Jazz Quintet - Rene et Olivier Franc
DYEAR=1900
DGENRE=Jazz
TTITLE0=I Am Through, Good Bye
TTITLE1=Kansas City Man Blues
TTITLE2=Kansas City Man Blues
TTITLE3=Song Of Songs
TTITLE4=Musknat Ramble
TTITLE5=That´s A Plenty
TTITLE6=Sobbin And Cryin
TTITLE7=Sweet Georgia Brown
TTITLE8=Southern Sunset
TTITLE9=Flat Boogie
TTITLE10=Summertime
TTITLE11=Dans Les Rues D'Antibes
TTITLE12=Waste No Tears
TTITLE13=Saint Louis Blues
EXTD=
EXTT0=
EXTT1=
EXTT2=
EXTT3=
EXTT4=
EXTT5=
EXTT6=
EXTT7=
EXTT8=
EXTT9=
EXTT10=
EXTT11=
EXTT12=
EXTT13=
PLAYORDER=
